<svg width="24" height="24" viewBox="0 0 24 24" fill="none" xmlns="http://www.w3.org/2000/svg">
<path fill-rule="evenodd" clip-rule="evenodd" d="M3.73312 5.33767C4.20257 4.86823 4.83928 4.60449 5.50318 4.60449H11.1977C11.6816 4.60449 12.0739 4.9968 12.0739 5.48073C12.0739 5.96466 11.6816 6.35696 11.1977 6.35696H5.50318C5.30406 6.35696 5.1131 6.43606 4.97231 6.57686C4.83151 6.71766 4.75241 6.90862 4.75241 7.10773V18.4968C4.75241 18.6959 4.83151 18.8869 4.97231 19.0277C5.1131 19.1685 5.30406 19.2476 5.50318 19.2476H16.8922C17.0914 19.2476 17.2823 19.1685 17.4231 19.0277C17.5639 18.8869 17.643 18.6959 17.643 18.4968V12.8023C17.643 12.3183 18.0353 11.926 18.5192 11.926C19.0032 11.926 19.3955 12.3183 19.3955 12.8023V18.4968C19.3955 19.1607 19.1317 19.7974 18.6623 20.2668C18.1928 20.7363 17.5561 21 16.8922 21H5.50318C4.83928 21 4.20257 20.7363 3.73312 20.2668C3.26367 19.7974 2.99994 19.1607 2.99994 18.4968V7.10773C2.99994 6.44383 3.26367 5.80712 3.73312 5.33767Z" fill="#707D93"/>
<path fill-rule="evenodd" clip-rule="evenodd" d="M18.5192 4.63122C18.2939 4.63122 18.0779 4.72072 17.9186 4.88003L10.3619 12.4367L9.96144 14.0385L11.5632 13.638L19.1199 6.08136C19.2792 5.92205 19.3687 5.70598 19.3687 5.48069C19.3687 5.2554 19.2792 5.03933 19.1199 4.88003C18.9606 4.72072 18.7445 4.63122 18.5192 4.63122ZM16.6794 3.64084C17.1673 3.15289 17.8291 2.87875 18.5192 2.87875C19.2093 2.87875 19.8711 3.15289 20.3591 3.64084C20.847 4.1288 21.1212 4.79061 21.1212 5.48069C21.1212 6.17077 20.847 6.83258 20.3591 7.32054L12.6308 15.0488C12.5185 15.1611 12.3778 15.2408 12.2237 15.2793L8.96969 16.0928C8.67109 16.1675 8.35522 16.08 8.13758 15.8623C7.91994 15.6447 7.83245 15.3288 7.9071 15.0302L8.72061 11.7762C8.75912 11.6221 8.83879 11.4814 8.95109 11.3691L16.6794 3.64084Z" fill="#707D93"/>
</svg>
